<svg xmlns="http://www.w3.org/2000/svg" viewBox="0 0 500 250" width="500" height="250" font-family="-apple-system, Segoe UI, Helvetica, Arial, sans-serif">
  <rect x="1" y="1" width="498" height="248" rx="10" fill="#0d1117" stroke="#21262d"/>
  <text x="24" y="38" font-size="17" font-weight="700" fill="#2D9BF0">Core Tech Stack</text>
  <text x="476" y="38" font-size="12" text-anchor="end" fill="#6e7681">day to day</text>
  <rect x="24" y="72" width="42" height="28" rx="14" fill="#00ADD8"/><text x="45" y="90" font-size="13" font-weight="600" text-anchor="middle" fill="#ffffff">Go</text><rect x="76" y="72" width="108" height="28" rx="14" fill="#3178C6"/><text x="130" y="90" font-size="13" font-weight="600" text-anchor="middle" fill="#ffffff">TypeScript</text><rect x="194" y="72" width="83" height="28" rx="14" fill="#339933"/><text x="236" y="90" font-size="13" font-weight="600" text-anchor="middle" fill="#ffffff">Node.js</text><rect x="287" y="72" width="58" height="28" rx="14" fill="#0b0b0b" stroke="#30363d" stroke-width="1"/><text x="316" y="90" font-size="13" font-weight="600" text-anchor="middle" fill="#ffffff">Rust</text><rect x="355" y="72" width="75" height="28" rx="14" fill="#2496ED"/><text x="392" y="90" font-size="13" font-weight="600" text-anchor="middle" fill="#ffffff">Docker</text><rect x="24" y="112" width="67" height="28" rx="14" fill="#FCC624"/><text x="58" y="130" font-size="13" font-weight="600" text-anchor="middle" fill="#0d1117">Linux</text><rect x="101" y="112" width="83" height="28" rx="14" fill="#E57000"/><text x="142" y="130" font-size="13" font-weight="600" text-anchor="middle" fill="#ffffff">Proxmox</text><rect x="194" y="112" width="99" height="28" rx="14" fill="#1679A7"/><text x="244" y="130" font-size="13" font-weight="600" text-anchor="middle" fill="#ffffff">Wireshark</text><rect x="303" y="112" width="58" height="28" rx="14" fill="#0E83CD"/><text x="332" y="130" font-size="13" font-weight="600" text-anchor="middle" fill="#ffffff">Nmap</text><rect x="24" y="152" width="108" height="28" rx="14" fill="#FF6633"/><text x="78" y="170" font-size="13" font-weight="600" text-anchor="middle" fill="#ffffff">Burp Suite</text>
</svg>
